<mxfile host="Electron" modified="2024-06-20T00:24:37.026Z" agent="Mozilla/5.0 (Windows NT 10.0; Win64; x64) AppleWebKit/537.36 (KHTML, like Gecko) draw.io/21.2.8 Chrome/112.0.5615.165 Electron/24.2.0 Safari/537.36" etag="UcI5mG13DQCy5EXgWcMK" version="21.2.8" type="device">
  <diagram name="PÃ¡gina-1" id="qos9tchU0BK9a_wP-aKY">
    <mxGraphModel dx="696" dy="982" grid="1" gridSize="10" guides="1" tooltips="1" connect="1" arrows="1" fold="1" page="1" pageScale="1" pageWidth="827" pageHeight="1169" math="0" shadow="0">
      <root>
        <mxCell id="0" />
        <mxCell id="1" parent="0" />
        <mxCell id="mcP9L7tTUNHFwV_d2nni-148" style="edgeStyle=orthogonalEdgeStyle;rounded=0;orthogonalLoop=1;jettySize=auto;html=1;fillColor=#f8cecc;strokeColor=#b85450;" edge="1" parent="1" source="mcP9L7tTUNHFwV_d2nni-1">
          <mxGeometry relative="1" as="geometry">
            <mxPoint x="290" y="250" as="targetPoint" />
          </mxGeometry>
        </mxCell>
        <mxCell id="mcP9L7tTUNHFwV_d2nni-1" value="inicio" style="ellipse;whiteSpace=wrap;html=1;strokeColor=#FF1605;" vertex="1" parent="1">
          <mxGeometry x="140" y="210" width="120" height="80" as="geometry" />
        </mxCell>
        <mxCell id="mcP9L7tTUNHFwV_d2nni-134" style="edgeStyle=orthogonalEdgeStyle;rounded=0;orthogonalLoop=1;jettySize=auto;html=1;exitX=0.799;exitY=0.1;exitDx=0;exitDy=0;entryX=0;entryY=0.5;entryDx=0;entryDy=0;exitPerimeter=0;" edge="1" parent="1" source="mcP9L7tTUNHFwV_d2nni-2" target="mcP9L7tTUNHFwV_d2nni-3">
          <mxGeometry relative="1" as="geometry" />
        </mxCell>
        <mxCell id="mcP9L7tTUNHFwV_d2nni-135" style="edgeStyle=orthogonalEdgeStyle;rounded=0;orthogonalLoop=1;jettySize=auto;html=1;exitX=1;exitY=1;exitDx=0;exitDy=0;entryX=-0.015;entryY=0.629;entryDx=0;entryDy=0;entryPerimeter=0;fillColor=#f8cecc;strokeColor=#b85450;" edge="1" parent="1" source="mcP9L7tTUNHFwV_d2nni-2" target="mcP9L7tTUNHFwV_d2nni-4">
          <mxGeometry relative="1" as="geometry">
            <Array as="points">
              <mxPoint x="396" y="330" />
              <mxPoint x="396" y="330" />
              <mxPoint x="396" y="340" />
            </Array>
          </mxGeometry>
        </mxCell>
        <mxCell id="mcP9L7tTUNHFwV_d2nni-2" value="1" style="ellipse;whiteSpace=wrap;html=1;strokeColor=#FF3730;" vertex="1" parent="1">
          <mxGeometry x="294" y="210" width="120" height="80" as="geometry" />
        </mxCell>
        <mxCell id="mcP9L7tTUNHFwV_d2nni-3" value="2" style="ellipse;whiteSpace=wrap;html=1;" vertex="1" parent="1">
          <mxGeometry x="414" y="110" width="120" height="80" as="geometry" />
        </mxCell>
        <mxCell id="mcP9L7tTUNHFwV_d2nni-136" style="edgeStyle=orthogonalEdgeStyle;rounded=0;orthogonalLoop=1;jettySize=auto;html=1;entryX=-0.032;entryY=0.505;entryDx=0;entryDy=0;entryPerimeter=0;fillColor=#f8cecc;strokeColor=#b85450;" edge="1" parent="1" source="mcP9L7tTUNHFwV_d2nni-4" target="mcP9L7tTUNHFwV_d2nni-5">
          <mxGeometry relative="1" as="geometry" />
        </mxCell>
        <mxCell id="mcP9L7tTUNHFwV_d2nni-4" value="3" style="ellipse;whiteSpace=wrap;html=1;strokeColor=#FF3730;" vertex="1" parent="1">
          <mxGeometry x="414" y="290" width="120" height="80" as="geometry" />
        </mxCell>
        <mxCell id="mcP9L7tTUNHFwV_d2nni-137" style="edgeStyle=orthogonalEdgeStyle;rounded=0;orthogonalLoop=1;jettySize=auto;html=1;entryX=0;entryY=0.5;entryDx=0;entryDy=0;fillColor=#f8cecc;strokeColor=#b85450;" edge="1" parent="1" source="mcP9L7tTUNHFwV_d2nni-5" target="mcP9L7tTUNHFwV_d2nni-6">
          <mxGeometry relative="1" as="geometry" />
        </mxCell>
        <mxCell id="mcP9L7tTUNHFwV_d2nni-5" value="4" style="ellipse;whiteSpace=wrap;html=1;strokeColor=#FF3730;" vertex="1" parent="1">
          <mxGeometry x="580" y="290" width="120" height="80" as="geometry" />
        </mxCell>
        <mxCell id="mcP9L7tTUNHFwV_d2nni-138" style="edgeStyle=orthogonalEdgeStyle;rounded=0;orthogonalLoop=1;jettySize=auto;html=1;entryX=-0.022;entryY=0.505;entryDx=0;entryDy=0;entryPerimeter=0;fillColor=#f8cecc;strokeColor=#b85450;" edge="1" parent="1" source="mcP9L7tTUNHFwV_d2nni-6" target="mcP9L7tTUNHFwV_d2nni-7">
          <mxGeometry relative="1" as="geometry" />
        </mxCell>
        <mxCell id="mcP9L7tTUNHFwV_d2nni-6" value="5" style="ellipse;whiteSpace=wrap;html=1;strokeColor=#FF3730;" vertex="1" parent="1">
          <mxGeometry x="750" y="290" width="120" height="80" as="geometry" />
        </mxCell>
        <mxCell id="mcP9L7tTUNHFwV_d2nni-139" style="edgeStyle=orthogonalEdgeStyle;rounded=0;orthogonalLoop=1;jettySize=auto;html=1;entryX=0;entryY=0.5;entryDx=0;entryDy=0;fillColor=#f8cecc;strokeColor=#b85450;" edge="1" parent="1" source="mcP9L7tTUNHFwV_d2nni-7" target="mcP9L7tTUNHFwV_d2nni-8">
          <mxGeometry relative="1" as="geometry" />
        </mxCell>
        <mxCell id="mcP9L7tTUNHFwV_d2nni-7" value="6" style="ellipse;whiteSpace=wrap;html=1;strokeColor=#FF3730;" vertex="1" parent="1">
          <mxGeometry x="920" y="290" width="120" height="80" as="geometry" />
        </mxCell>
        <mxCell id="mcP9L7tTUNHFwV_d2nni-140" style="edgeStyle=orthogonalEdgeStyle;rounded=0;orthogonalLoop=1;jettySize=auto;html=1;entryX=-0.022;entryY=0.5;entryDx=0;entryDy=0;entryPerimeter=0;fillColor=#f8cecc;strokeColor=#b85450;" edge="1" parent="1" source="mcP9L7tTUNHFwV_d2nni-8" target="mcP9L7tTUNHFwV_d2nni-9">
          <mxGeometry relative="1" as="geometry" />
        </mxCell>
        <mxCell id="mcP9L7tTUNHFwV_d2nni-8" value="7" style="ellipse;whiteSpace=wrap;html=1;strokeColor=#FF3730;" vertex="1" parent="1">
          <mxGeometry x="1090" y="290" width="120" height="80" as="geometry" />
        </mxCell>
        <mxCell id="mcP9L7tTUNHFwV_d2nni-141" style="edgeStyle=orthogonalEdgeStyle;rounded=0;orthogonalLoop=1;jettySize=auto;html=1;entryX=-0.022;entryY=0.495;entryDx=0;entryDy=0;entryPerimeter=0;fillColor=#f8cecc;strokeColor=#b85450;" edge="1" parent="1" source="mcP9L7tTUNHFwV_d2nni-9" target="mcP9L7tTUNHFwV_d2nni-10">
          <mxGeometry relative="1" as="geometry" />
        </mxCell>
        <mxCell id="mcP9L7tTUNHFwV_d2nni-9" value="8" style="ellipse;whiteSpace=wrap;html=1;strokeColor=#FF3730;" vertex="1" parent="1">
          <mxGeometry x="1260" y="290" width="120" height="80" as="geometry" />
        </mxCell>
        <mxCell id="mcP9L7tTUNHFwV_d2nni-142" style="edgeStyle=orthogonalEdgeStyle;rounded=0;orthogonalLoop=1;jettySize=auto;html=1;exitX=1;exitY=0;exitDx=0;exitDy=0;entryX=0;entryY=0.5;entryDx=0;entryDy=0;fillColor=#f8cecc;strokeColor=#b85450;" edge="1" parent="1" source="mcP9L7tTUNHFwV_d2nni-10" target="mcP9L7tTUNHFwV_d2nni-11">
          <mxGeometry relative="1" as="geometry">
            <Array as="points">
              <mxPoint x="1530" y="302" />
              <mxPoint x="1530" y="240" />
            </Array>
          </mxGeometry>
        </mxCell>
        <mxCell id="mcP9L7tTUNHFwV_d2nni-143" style="edgeStyle=orthogonalEdgeStyle;rounded=0;orthogonalLoop=1;jettySize=auto;html=1;exitX=1;exitY=1;exitDx=0;exitDy=0;entryX=0;entryY=0.5;entryDx=0;entryDy=0;" edge="1" parent="1" source="mcP9L7tTUNHFwV_d2nni-10" target="mcP9L7tTUNHFwV_d2nni-12">
          <mxGeometry relative="1" as="geometry">
            <Array as="points">
              <mxPoint x="1530" y="358" />
              <mxPoint x="1530" y="420" />
            </Array>
          </mxGeometry>
        </mxCell>
        <mxCell id="mcP9L7tTUNHFwV_d2nni-10" value="9" style="ellipse;whiteSpace=wrap;html=1;strokeColor=#FF3730;" vertex="1" parent="1">
          <mxGeometry x="1430" y="290" width="120" height="80" as="geometry" />
        </mxCell>
        <mxCell id="mcP9L7tTUNHFwV_d2nni-145" style="edgeStyle=orthogonalEdgeStyle;rounded=0;orthogonalLoop=1;jettySize=auto;html=1;entryX=0.158;entryY=0.115;entryDx=0;entryDy=0;entryPerimeter=0;fillColor=#f8cecc;strokeColor=#b85450;" edge="1" parent="1" source="mcP9L7tTUNHFwV_d2nni-11" target="mcP9L7tTUNHFwV_d2nni-13">
          <mxGeometry relative="1" as="geometry" />
        </mxCell>
        <mxCell id="mcP9L7tTUNHFwV_d2nni-11" value="10" style="ellipse;whiteSpace=wrap;html=1;strokeColor=#FF3730;" vertex="1" parent="1">
          <mxGeometry x="1550" y="200" width="120" height="80" as="geometry" />
        </mxCell>
        <mxCell id="mcP9L7tTUNHFwV_d2nni-144" style="edgeStyle=orthogonalEdgeStyle;rounded=0;orthogonalLoop=1;jettySize=auto;html=1;exitX=1;exitY=0.5;exitDx=0;exitDy=0;entryX=0;entryY=1;entryDx=0;entryDy=0;" edge="1" parent="1" source="mcP9L7tTUNHFwV_d2nni-12" target="mcP9L7tTUNHFwV_d2nni-13">
          <mxGeometry relative="1" as="geometry" />
        </mxCell>
        <mxCell id="mcP9L7tTUNHFwV_d2nni-12" value="11" style="ellipse;whiteSpace=wrap;html=1;" vertex="1" parent="1">
          <mxGeometry x="1550" y="380" width="120" height="80" as="geometry" />
        </mxCell>
        <mxCell id="mcP9L7tTUNHFwV_d2nni-146" style="edgeStyle=orthogonalEdgeStyle;rounded=0;orthogonalLoop=1;jettySize=auto;html=1;entryX=0;entryY=0.5;entryDx=0;entryDy=0;fillColor=#f8cecc;strokeColor=#b85450;" edge="1" parent="1" source="mcP9L7tTUNHFwV_d2nni-13" target="mcP9L7tTUNHFwV_d2nni-14">
          <mxGeometry relative="1" as="geometry" />
        </mxCell>
        <mxCell id="mcP9L7tTUNHFwV_d2nni-13" value="12" style="ellipse;whiteSpace=wrap;html=1;strokeColor=#FF3730;" vertex="1" parent="1">
          <mxGeometry x="1720" y="290" width="120" height="80" as="geometry" />
        </mxCell>
        <mxCell id="mcP9L7tTUNHFwV_d2nni-147" style="edgeStyle=orthogonalEdgeStyle;rounded=0;orthogonalLoop=1;jettySize=auto;html=1;entryX=0;entryY=0.5;entryDx=0;entryDy=0;fillColor=#f8cecc;strokeColor=#b85450;" edge="1" parent="1" source="mcP9L7tTUNHFwV_d2nni-14" target="mcP9L7tTUNHFwV_d2nni-27">
          <mxGeometry relative="1" as="geometry" />
        </mxCell>
        <mxCell id="mcP9L7tTUNHFwV_d2nni-14" value="13" style="ellipse;whiteSpace=wrap;html=1;strokeColor=#FF3730;" vertex="1" parent="1">
          <mxGeometry x="1880" y="290" width="120" height="80" as="geometry" />
        </mxCell>
        <mxCell id="mcP9L7tTUNHFwV_d2nni-15" value="30d" style="text;html=1;strokeColor=none;fillColor=none;align=center;verticalAlign=middle;whiteSpace=wrap;rounded=0;" vertex="1" parent="1">
          <mxGeometry x="324" y="300" width="60" height="30" as="geometry" />
        </mxCell>
        <mxCell id="mcP9L7tTUNHFwV_d2nni-16" value="3d" style="text;html=1;strokeColor=none;fillColor=none;align=center;verticalAlign=middle;whiteSpace=wrap;rounded=0;" vertex="1" parent="1">
          <mxGeometry x="444" y="200" width="60" height="30" as="geometry" />
        </mxCell>
        <mxCell id="mcP9L7tTUNHFwV_d2nni-17" value="45d" style="text;html=1;strokeColor=none;fillColor=none;align=center;verticalAlign=middle;whiteSpace=wrap;rounded=0;" vertex="1" parent="1">
          <mxGeometry x="444" y="380" width="60" height="30" as="geometry" />
        </mxCell>
        <mxCell id="mcP9L7tTUNHFwV_d2nni-18" value="20d" style="text;html=1;strokeColor=none;fillColor=none;align=center;verticalAlign=middle;whiteSpace=wrap;rounded=0;" vertex="1" parent="1">
          <mxGeometry x="610" y="380" width="60" height="30" as="geometry" />
        </mxCell>
        <mxCell id="mcP9L7tTUNHFwV_d2nni-19" value="15d" style="text;html=1;strokeColor=none;fillColor=none;align=center;verticalAlign=middle;whiteSpace=wrap;rounded=0;" vertex="1" parent="1">
          <mxGeometry x="780" y="380" width="60" height="30" as="geometry" />
        </mxCell>
        <mxCell id="mcP9L7tTUNHFwV_d2nni-20" value="15d" style="text;html=1;strokeColor=none;fillColor=none;align=center;verticalAlign=middle;whiteSpace=wrap;rounded=0;" vertex="1" parent="1">
          <mxGeometry x="950" y="380" width="60" height="30" as="geometry" />
        </mxCell>
        <mxCell id="mcP9L7tTUNHFwV_d2nni-21" value="15d" style="text;html=1;strokeColor=none;fillColor=none;align=center;verticalAlign=middle;whiteSpace=wrap;rounded=0;" vertex="1" parent="1">
          <mxGeometry x="1120" y="380" width="60" height="30" as="geometry" />
        </mxCell>
        <mxCell id="mcP9L7tTUNHFwV_d2nni-22" value="7d" style="text;html=1;strokeColor=none;fillColor=none;align=center;verticalAlign=middle;whiteSpace=wrap;rounded=0;" vertex="1" parent="1">
          <mxGeometry x="1290" y="380" width="60" height="30" as="geometry" />
        </mxCell>
        <mxCell id="mcP9L7tTUNHFwV_d2nni-23" value="5d" style="text;html=1;strokeColor=none;fillColor=none;align=center;verticalAlign=middle;whiteSpace=wrap;rounded=0;" vertex="1" parent="1">
          <mxGeometry x="1460" y="380" width="60" height="30" as="geometry" />
        </mxCell>
        <mxCell id="mcP9L7tTUNHFwV_d2nni-24" value="10d" style="text;html=1;strokeColor=none;fillColor=none;align=center;verticalAlign=middle;whiteSpace=wrap;rounded=0;" vertex="1" parent="1">
          <mxGeometry x="1580" y="280" width="60" height="30" as="geometry" />
        </mxCell>
        <mxCell id="mcP9L7tTUNHFwV_d2nni-25" value="1,5d" style="text;html=1;strokeColor=none;fillColor=none;align=center;verticalAlign=middle;whiteSpace=wrap;rounded=0;" vertex="1" parent="1">
          <mxGeometry x="1580" y="470" width="60" height="30" as="geometry" />
        </mxCell>
        <mxCell id="mcP9L7tTUNHFwV_d2nni-26" value="20d" style="text;html=1;strokeColor=none;fillColor=none;align=center;verticalAlign=middle;whiteSpace=wrap;rounded=0;" vertex="1" parent="1">
          <mxGeometry x="1750" y="380" width="60" height="30" as="geometry" />
        </mxCell>
        <mxCell id="mcP9L7tTUNHFwV_d2nni-27" value="fin" style="ellipse;whiteSpace=wrap;html=1;strokeColor=#FF1605;" vertex="1" parent="1">
          <mxGeometry x="2068" y="290" width="120" height="80" as="geometry" />
        </mxCell>
        <mxCell id="mcP9L7tTUNHFwV_d2nni-28" value="7d" style="text;html=1;strokeColor=none;fillColor=none;align=center;verticalAlign=middle;whiteSpace=wrap;rounded=0;" vertex="1" parent="1">
          <mxGeometry x="1910" y="380" width="60" height="30" as="geometry" />
        </mxCell>
        <mxCell id="mcP9L7tTUNHFwV_d2nni-29" value="" style="endArrow=none;html=1;rounded=0;" edge="1" parent="1">
          <mxGeometry width="50" height="50" relative="1" as="geometry">
            <mxPoint x="350" y="180" as="sourcePoint" />
            <mxPoint x="350" y="140" as="targetPoint" />
          </mxGeometry>
        </mxCell>
        <mxCell id="mcP9L7tTUNHFwV_d2nni-31" value="" style="endArrow=none;html=1;rounded=0;" edge="1" parent="1">
          <mxGeometry width="50" height="50" relative="1" as="geometry">
            <mxPoint x="330" y="160" as="sourcePoint" />
            <mxPoint x="370" y="160" as="targetPoint" />
          </mxGeometry>
        </mxCell>
        <mxCell id="mcP9L7tTUNHFwV_d2nni-40" value="0" style="text;html=1;strokeColor=none;fillColor=none;align=center;verticalAlign=middle;whiteSpace=wrap;rounded=0;" vertex="1" parent="1">
          <mxGeometry x="310" y="135" width="60" height="30" as="geometry" />
        </mxCell>
        <mxCell id="mcP9L7tTUNHFwV_d2nni-41" value="30" style="text;html=1;strokeColor=none;fillColor=none;align=center;verticalAlign=middle;whiteSpace=wrap;rounded=0;" vertex="1" parent="1">
          <mxGeometry x="330" y="135" width="60" height="30" as="geometry" />
        </mxCell>
        <mxCell id="mcP9L7tTUNHFwV_d2nni-42" value="" style="endArrow=none;html=1;rounded=0;" edge="1" parent="1">
          <mxGeometry width="50" height="50" relative="1" as="geometry">
            <mxPoint x="480" y="100" as="sourcePoint" />
            <mxPoint x="480" y="60" as="targetPoint" />
          </mxGeometry>
        </mxCell>
        <mxCell id="mcP9L7tTUNHFwV_d2nni-43" value="" style="endArrow=none;html=1;rounded=0;" edge="1" parent="1">
          <mxGeometry width="50" height="50" relative="1" as="geometry">
            <mxPoint x="460" y="80" as="sourcePoint" />
            <mxPoint x="500" y="80" as="targetPoint" />
          </mxGeometry>
        </mxCell>
        <mxCell id="mcP9L7tTUNHFwV_d2nni-44" value="30" style="text;html=1;strokeColor=none;fillColor=none;align=center;verticalAlign=middle;whiteSpace=wrap;rounded=0;" vertex="1" parent="1">
          <mxGeometry x="444" y="60" width="50" height="20" as="geometry" />
        </mxCell>
        <mxCell id="mcP9L7tTUNHFwV_d2nni-45" value="33" style="text;html=1;strokeColor=none;fillColor=none;align=center;verticalAlign=middle;whiteSpace=wrap;rounded=0;" vertex="1" parent="1">
          <mxGeometry x="460" y="55" width="60" height="30" as="geometry" />
        </mxCell>
        <mxCell id="mcP9L7tTUNHFwV_d2nni-46" value="" style="endArrow=none;html=1;rounded=0;" edge="1" parent="1">
          <mxGeometry width="50" height="50" relative="1" as="geometry">
            <mxPoint x="480" y="280" as="sourcePoint" />
            <mxPoint x="480" y="240" as="targetPoint" />
          </mxGeometry>
        </mxCell>
        <mxCell id="mcP9L7tTUNHFwV_d2nni-47" value="" style="endArrow=none;html=1;rounded=0;" edge="1" parent="1">
          <mxGeometry width="50" height="50" relative="1" as="geometry">
            <mxPoint x="460" y="260" as="sourcePoint" />
            <mxPoint x="500" y="260" as="targetPoint" />
          </mxGeometry>
        </mxCell>
        <mxCell id="mcP9L7tTUNHFwV_d2nni-48" value="75" style="text;html=1;strokeColor=none;fillColor=none;align=center;verticalAlign=middle;whiteSpace=wrap;rounded=0;" vertex="1" parent="1">
          <mxGeometry x="460" y="235" width="60" height="30" as="geometry" />
        </mxCell>
        <mxCell id="mcP9L7tTUNHFwV_d2nni-49" value="30" style="text;html=1;strokeColor=none;fillColor=none;align=center;verticalAlign=middle;whiteSpace=wrap;rounded=0;" vertex="1" parent="1">
          <mxGeometry x="439" y="235" width="60" height="30" as="geometry" />
        </mxCell>
        <mxCell id="mcP9L7tTUNHFwV_d2nni-50" value="" style="endArrow=none;html=1;rounded=0;" edge="1" parent="1">
          <mxGeometry width="50" height="50" relative="1" as="geometry">
            <mxPoint x="639.8" y="280" as="sourcePoint" />
            <mxPoint x="639.8" y="240" as="targetPoint" />
          </mxGeometry>
        </mxCell>
        <mxCell id="mcP9L7tTUNHFwV_d2nni-51" value="" style="endArrow=none;html=1;rounded=0;" edge="1" parent="1">
          <mxGeometry width="50" height="50" relative="1" as="geometry">
            <mxPoint x="620" y="260" as="sourcePoint" />
            <mxPoint x="660" y="260" as="targetPoint" />
          </mxGeometry>
        </mxCell>
        <mxCell id="mcP9L7tTUNHFwV_d2nni-52" value="75" style="text;html=1;strokeColor=none;fillColor=none;align=center;verticalAlign=middle;whiteSpace=wrap;rounded=0;" vertex="1" parent="1">
          <mxGeometry x="600" y="235" width="60" height="30" as="geometry" />
        </mxCell>
        <mxCell id="mcP9L7tTUNHFwV_d2nni-53" value="95" style="text;html=1;strokeColor=none;fillColor=none;align=center;verticalAlign=middle;whiteSpace=wrap;rounded=0;" vertex="1" parent="1">
          <mxGeometry x="620" y="235" width="60" height="30" as="geometry" />
        </mxCell>
        <mxCell id="mcP9L7tTUNHFwV_d2nni-54" value="" style="endArrow=none;html=1;rounded=0;" edge="1" parent="1">
          <mxGeometry width="50" height="50" relative="1" as="geometry">
            <mxPoint x="809.86" y="280" as="sourcePoint" />
            <mxPoint x="809.86" y="240" as="targetPoint" />
          </mxGeometry>
        </mxCell>
        <mxCell id="mcP9L7tTUNHFwV_d2nni-55" value="" style="endArrow=none;html=1;rounded=0;" edge="1" parent="1">
          <mxGeometry width="50" height="50" relative="1" as="geometry">
            <mxPoint x="790" y="260" as="sourcePoint" />
            <mxPoint x="830" y="260" as="targetPoint" />
          </mxGeometry>
        </mxCell>
        <mxCell id="mcP9L7tTUNHFwV_d2nni-56" value="95" style="text;html=1;strokeColor=none;fillColor=none;align=center;verticalAlign=middle;whiteSpace=wrap;rounded=0;" vertex="1" parent="1">
          <mxGeometry x="770" y="237.5" width="57" height="25" as="geometry" />
        </mxCell>
        <mxCell id="mcP9L7tTUNHFwV_d2nni-57" value="110" style="text;html=1;strokeColor=none;fillColor=none;align=center;verticalAlign=middle;whiteSpace=wrap;rounded=0;" vertex="1" parent="1">
          <mxGeometry x="790" y="235" width="60" height="30" as="geometry" />
        </mxCell>
        <mxCell id="mcP9L7tTUNHFwV_d2nni-58" value="" style="endArrow=none;html=1;rounded=0;" edge="1" parent="1">
          <mxGeometry width="50" height="50" relative="1" as="geometry">
            <mxPoint x="979.83" y="280" as="sourcePoint" />
            <mxPoint x="979.83" y="240" as="targetPoint" />
          </mxGeometry>
        </mxCell>
        <mxCell id="mcP9L7tTUNHFwV_d2nni-59" value="" style="endArrow=none;html=1;rounded=0;" edge="1" parent="1">
          <mxGeometry width="50" height="50" relative="1" as="geometry">
            <mxPoint x="960" y="260" as="sourcePoint" />
            <mxPoint x="1000" y="260" as="targetPoint" />
          </mxGeometry>
        </mxCell>
        <mxCell id="mcP9L7tTUNHFwV_d2nni-60" value="110" style="text;html=1;strokeColor=none;fillColor=none;align=center;verticalAlign=middle;whiteSpace=wrap;rounded=0;" vertex="1" parent="1">
          <mxGeometry x="950" y="234.38" width="30" height="31.25" as="geometry" />
        </mxCell>
        <mxCell id="mcP9L7tTUNHFwV_d2nni-61" value="125" style="text;html=1;strokeColor=none;fillColor=none;align=center;verticalAlign=middle;whiteSpace=wrap;rounded=0;" vertex="1" parent="1">
          <mxGeometry x="960" y="235" width="60" height="30" as="geometry" />
        </mxCell>
        <mxCell id="mcP9L7tTUNHFwV_d2nni-62" value="" style="endArrow=none;html=1;rounded=0;" edge="1" parent="1">
          <mxGeometry width="50" height="50" relative="1" as="geometry">
            <mxPoint x="1149.83" y="280" as="sourcePoint" />
            <mxPoint x="1149.83" y="240" as="targetPoint" />
          </mxGeometry>
        </mxCell>
        <mxCell id="mcP9L7tTUNHFwV_d2nni-63" value="" style="endArrow=none;html=1;rounded=0;" edge="1" parent="1">
          <mxGeometry width="50" height="50" relative="1" as="geometry">
            <mxPoint x="1130" y="260" as="sourcePoint" />
            <mxPoint x="1170" y="260" as="targetPoint" />
          </mxGeometry>
        </mxCell>
        <mxCell id="mcP9L7tTUNHFwV_d2nni-64" value="125" style="text;html=1;strokeColor=none;fillColor=none;align=center;verticalAlign=middle;whiteSpace=wrap;rounded=0;" vertex="1" parent="1">
          <mxGeometry x="1110" y="240" width="50" height="25.63" as="geometry" />
        </mxCell>
        <mxCell id="mcP9L7tTUNHFwV_d2nni-66" value="140" style="text;html=1;strokeColor=none;fillColor=none;align=center;verticalAlign=middle;whiteSpace=wrap;rounded=0;" vertex="1" parent="1">
          <mxGeometry x="1140" y="240" width="40" height="24.37" as="geometry" />
        </mxCell>
        <mxCell id="mcP9L7tTUNHFwV_d2nni-68" value="" style="endArrow=none;html=1;rounded=0;" edge="1" parent="1">
          <mxGeometry width="50" height="50" relative="1" as="geometry">
            <mxPoint x="1319.8" y="280" as="sourcePoint" />
            <mxPoint x="1319.8" y="240" as="targetPoint" />
          </mxGeometry>
        </mxCell>
        <mxCell id="mcP9L7tTUNHFwV_d2nni-69" value="" style="endArrow=none;html=1;rounded=0;" edge="1" parent="1">
          <mxGeometry width="50" height="50" relative="1" as="geometry">
            <mxPoint x="1300" y="260" as="sourcePoint" />
            <mxPoint x="1340" y="260" as="targetPoint" />
          </mxGeometry>
        </mxCell>
        <mxCell id="mcP9L7tTUNHFwV_d2nni-70" value="140" style="text;html=1;strokeColor=none;fillColor=none;align=center;verticalAlign=middle;whiteSpace=wrap;rounded=0;" vertex="1" parent="1">
          <mxGeometry x="1290" y="237.5" width="40" height="30" as="geometry" />
        </mxCell>
        <mxCell id="mcP9L7tTUNHFwV_d2nni-71" value="147" style="text;html=1;strokeColor=none;fillColor=none;align=center;verticalAlign=middle;whiteSpace=wrap;rounded=0;" vertex="1" parent="1">
          <mxGeometry x="1310" y="237.81" width="40" height="30" as="geometry" />
        </mxCell>
        <mxCell id="mcP9L7tTUNHFwV_d2nni-73" value="" style="endArrow=none;html=1;rounded=0;" edge="1" parent="1">
          <mxGeometry width="50" height="50" relative="1" as="geometry">
            <mxPoint x="1489.8" y="280" as="sourcePoint" />
            <mxPoint x="1489.8" y="240" as="targetPoint" />
          </mxGeometry>
        </mxCell>
        <mxCell id="mcP9L7tTUNHFwV_d2nni-74" value="" style="endArrow=none;html=1;rounded=0;" edge="1" parent="1">
          <mxGeometry width="50" height="50" relative="1" as="geometry">
            <mxPoint x="1470" y="260" as="sourcePoint" />
            <mxPoint x="1510" y="260" as="targetPoint" />
          </mxGeometry>
        </mxCell>
        <mxCell id="mcP9L7tTUNHFwV_d2nni-75" value="147" style="text;html=1;strokeColor=none;fillColor=none;align=center;verticalAlign=middle;whiteSpace=wrap;rounded=0;" vertex="1" parent="1">
          <mxGeometry x="1460" y="238" width="40" height="30" as="geometry" />
        </mxCell>
        <mxCell id="mcP9L7tTUNHFwV_d2nni-76" value="152" style="text;html=1;strokeColor=none;fillColor=none;align=center;verticalAlign=middle;whiteSpace=wrap;rounded=0;" vertex="1" parent="1">
          <mxGeometry x="1470" y="238" width="60" height="30" as="geometry" />
        </mxCell>
        <mxCell id="mcP9L7tTUNHFwV_d2nni-77" value="" style="endArrow=none;html=1;rounded=0;" edge="1" parent="1">
          <mxGeometry width="50" height="50" relative="1" as="geometry">
            <mxPoint x="1609.8" y="190" as="sourcePoint" />
            <mxPoint x="1609.8" y="150" as="targetPoint" />
          </mxGeometry>
        </mxCell>
        <mxCell id="mcP9L7tTUNHFwV_d2nni-78" value="" style="endArrow=none;html=1;rounded=0;" edge="1" parent="1">
          <mxGeometry width="50" height="50" relative="1" as="geometry">
            <mxPoint x="1590" y="170" as="sourcePoint" />
            <mxPoint x="1630" y="170" as="targetPoint" />
          </mxGeometry>
        </mxCell>
        <mxCell id="mcP9L7tTUNHFwV_d2nni-79" value="152" style="text;html=1;strokeColor=none;fillColor=none;align=center;verticalAlign=middle;whiteSpace=wrap;rounded=0;" vertex="1" parent="1">
          <mxGeometry x="1570" y="150" width="50" height="20" as="geometry" />
        </mxCell>
        <mxCell id="mcP9L7tTUNHFwV_d2nni-80" value="162" style="text;html=1;strokeColor=none;fillColor=none;align=center;verticalAlign=middle;whiteSpace=wrap;rounded=0;" vertex="1" parent="1">
          <mxGeometry x="1600" y="150" width="40" height="20" as="geometry" />
        </mxCell>
        <mxCell id="mcP9L7tTUNHFwV_d2nni-81" value="" style="endArrow=none;html=1;rounded=0;" edge="1" parent="1">
          <mxGeometry width="50" height="50" relative="1" as="geometry">
            <mxPoint x="1609.8" y="370" as="sourcePoint" />
            <mxPoint x="1609.8" y="330" as="targetPoint" />
          </mxGeometry>
        </mxCell>
        <mxCell id="mcP9L7tTUNHFwV_d2nni-82" value="" style="endArrow=none;html=1;rounded=0;" edge="1" parent="1">
          <mxGeometry width="50" height="50" relative="1" as="geometry">
            <mxPoint x="1590" y="350" as="sourcePoint" />
            <mxPoint x="1630" y="350" as="targetPoint" />
          </mxGeometry>
        </mxCell>
        <mxCell id="mcP9L7tTUNHFwV_d2nni-83" value="152" style="text;html=1;strokeColor=none;fillColor=none;align=center;verticalAlign=middle;whiteSpace=wrap;rounded=0;" vertex="1" parent="1">
          <mxGeometry x="1565" y="320" width="60" height="40" as="geometry" />
        </mxCell>
        <mxCell id="mcP9L7tTUNHFwV_d2nni-84" value="153,5" style="text;html=1;strokeColor=none;fillColor=none;align=center;verticalAlign=middle;whiteSpace=wrap;rounded=0;" vertex="1" parent="1">
          <mxGeometry x="1594" y="325" width="66" height="30" as="geometry" />
        </mxCell>
        <mxCell id="mcP9L7tTUNHFwV_d2nni-85" value="" style="endArrow=none;html=1;rounded=0;" edge="1" parent="1">
          <mxGeometry width="50" height="50" relative="1" as="geometry">
            <mxPoint x="1779.8" y="280" as="sourcePoint" />
            <mxPoint x="1779.8" y="240" as="targetPoint" />
          </mxGeometry>
        </mxCell>
        <mxCell id="mcP9L7tTUNHFwV_d2nni-86" value="" style="endArrow=none;html=1;rounded=0;" edge="1" parent="1">
          <mxGeometry width="50" height="50" relative="1" as="geometry">
            <mxPoint x="1760" y="260" as="sourcePoint" />
            <mxPoint x="1800" y="260" as="targetPoint" />
          </mxGeometry>
        </mxCell>
        <mxCell id="mcP9L7tTUNHFwV_d2nni-87" value="162" style="text;html=1;strokeColor=none;fillColor=none;align=center;verticalAlign=middle;whiteSpace=wrap;rounded=0;" vertex="1" parent="1">
          <mxGeometry x="1730" y="234.37" width="70" height="30" as="geometry" />
        </mxCell>
        <mxCell id="mcP9L7tTUNHFwV_d2nni-88" value="182" style="text;html=1;strokeColor=none;fillColor=none;align=center;verticalAlign=middle;whiteSpace=wrap;rounded=0;" vertex="1" parent="1">
          <mxGeometry x="1760" y="234.37" width="70" height="30" as="geometry" />
        </mxCell>
        <mxCell id="mcP9L7tTUNHFwV_d2nni-90" value="" style="endArrow=none;html=1;rounded=0;" edge="1" parent="1">
          <mxGeometry width="50" height="50" relative="1" as="geometry">
            <mxPoint x="1939.8" y="280" as="sourcePoint" />
            <mxPoint x="1939.8" y="240" as="targetPoint" />
          </mxGeometry>
        </mxCell>
        <mxCell id="mcP9L7tTUNHFwV_d2nni-91" value="" style="endArrow=none;html=1;rounded=0;" edge="1" parent="1">
          <mxGeometry width="50" height="50" relative="1" as="geometry">
            <mxPoint x="1920" y="260" as="sourcePoint" />
            <mxPoint x="1960" y="260" as="targetPoint" />
          </mxGeometry>
        </mxCell>
        <mxCell id="mcP9L7tTUNHFwV_d2nni-92" value="182" style="text;html=1;strokeColor=none;fillColor=none;align=center;verticalAlign=middle;whiteSpace=wrap;rounded=0;" vertex="1" parent="1">
          <mxGeometry x="1900" y="234.37" width="50" height="30" as="geometry" />
        </mxCell>
        <mxCell id="mcP9L7tTUNHFwV_d2nni-93" value="189" style="text;html=1;strokeColor=none;fillColor=none;align=center;verticalAlign=middle;whiteSpace=wrap;rounded=0;" vertex="1" parent="1">
          <mxGeometry x="1920" y="235" width="70" height="30" as="geometry" />
        </mxCell>
        <mxCell id="mcP9L7tTUNHFwV_d2nni-94" value="189" style="text;html=1;strokeColor=none;fillColor=none;align=center;verticalAlign=middle;whiteSpace=wrap;rounded=0;" vertex="1" parent="1">
          <mxGeometry x="1930" y="250" width="50" height="40" as="geometry" />
        </mxCell>
        <mxCell id="mcP9L7tTUNHFwV_d2nni-95" value="182" style="text;html=1;strokeColor=none;fillColor=none;align=center;verticalAlign=middle;whiteSpace=wrap;rounded=0;" vertex="1" parent="1">
          <mxGeometry x="1895" y="255" width="60" height="30" as="geometry" />
        </mxCell>
        <mxCell id="mcP9L7tTUNHFwV_d2nni-96" value="182" style="text;html=1;strokeColor=none;fillColor=none;align=center;verticalAlign=middle;whiteSpace=wrap;rounded=0;" vertex="1" parent="1">
          <mxGeometry x="1765" y="255" width="60" height="30" as="geometry" />
        </mxCell>
        <mxCell id="mcP9L7tTUNHFwV_d2nni-97" value="162" style="text;html=1;strokeColor=none;fillColor=none;align=center;verticalAlign=middle;whiteSpace=wrap;rounded=0;" vertex="1" parent="1">
          <mxGeometry x="1735" y="255" width="60" height="30" as="geometry" />
        </mxCell>
        <mxCell id="mcP9L7tTUNHFwV_d2nni-98" value="162" style="text;html=1;strokeColor=none;fillColor=none;align=center;verticalAlign=middle;whiteSpace=wrap;rounded=0;" vertex="1" parent="1">
          <mxGeometry x="1600" y="350" width="50" height="20" as="geometry" />
        </mxCell>
        <mxCell id="mcP9L7tTUNHFwV_d2nni-99" value="160,5" style="text;html=1;strokeColor=none;fillColor=none;align=center;verticalAlign=middle;whiteSpace=wrap;rounded=0;" vertex="1" parent="1">
          <mxGeometry x="1560" y="345" width="60" height="30" as="geometry" />
        </mxCell>
        <mxCell id="mcP9L7tTUNHFwV_d2nni-101" value="162" style="text;html=1;strokeColor=none;fillColor=none;align=center;verticalAlign=middle;whiteSpace=wrap;rounded=0;" vertex="1" parent="1">
          <mxGeometry x="1580" y="165" width="80" height="30" as="geometry" />
        </mxCell>
        <mxCell id="mcP9L7tTUNHFwV_d2nni-102" value="152" style="text;html=1;strokeColor=none;fillColor=none;align=center;verticalAlign=middle;whiteSpace=wrap;rounded=0;" vertex="1" parent="1">
          <mxGeometry x="1565" y="165" width="60" height="30" as="geometry" />
        </mxCell>
        <mxCell id="mcP9L7tTUNHFwV_d2nni-103" value="152" style="text;html=1;strokeColor=none;fillColor=none;align=center;verticalAlign=middle;whiteSpace=wrap;rounded=0;" vertex="1" parent="1">
          <mxGeometry x="1470" y="255" width="60" height="30" as="geometry" />
        </mxCell>
        <mxCell id="mcP9L7tTUNHFwV_d2nni-104" value="147" style="text;html=1;strokeColor=none;fillColor=none;align=center;verticalAlign=middle;whiteSpace=wrap;rounded=0;" vertex="1" parent="1">
          <mxGeometry x="1450" y="255" width="60" height="30" as="geometry" />
        </mxCell>
        <mxCell id="mcP9L7tTUNHFwV_d2nni-105" value="147" style="text;html=1;strokeColor=none;fillColor=none;align=center;verticalAlign=middle;whiteSpace=wrap;rounded=0;" vertex="1" parent="1">
          <mxGeometry x="1300" y="255" width="60" height="30" as="geometry" />
        </mxCell>
        <mxCell id="mcP9L7tTUNHFwV_d2nni-106" value="140" style="text;html=1;strokeColor=none;fillColor=none;align=center;verticalAlign=middle;whiteSpace=wrap;rounded=0;" vertex="1" parent="1">
          <mxGeometry x="1280" y="255" width="60" height="30" as="geometry" />
        </mxCell>
        <mxCell id="mcP9L7tTUNHFwV_d2nni-107" value="140" style="text;html=1;strokeColor=none;fillColor=none;align=center;verticalAlign=middle;whiteSpace=wrap;rounded=0;" vertex="1" parent="1">
          <mxGeometry x="1130" y="255" width="60" height="30" as="geometry" />
        </mxCell>
        <mxCell id="mcP9L7tTUNHFwV_d2nni-108" value="125" style="text;html=1;strokeColor=none;fillColor=none;align=center;verticalAlign=middle;whiteSpace=wrap;rounded=0;" vertex="1" parent="1">
          <mxGeometry x="1105" y="255" width="60" height="30" as="geometry" />
        </mxCell>
        <mxCell id="mcP9L7tTUNHFwV_d2nni-109" value="125" style="text;html=1;strokeColor=none;fillColor=none;align=center;verticalAlign=middle;whiteSpace=wrap;rounded=0;" vertex="1" parent="1">
          <mxGeometry x="960" y="255" width="60" height="30" as="geometry" />
        </mxCell>
        <mxCell id="mcP9L7tTUNHFwV_d2nni-110" value="110" style="text;html=1;strokeColor=none;fillColor=none;align=center;verticalAlign=middle;whiteSpace=wrap;rounded=0;" vertex="1" parent="1">
          <mxGeometry x="935" y="255" width="60" height="30" as="geometry" />
        </mxCell>
        <mxCell id="mcP9L7tTUNHFwV_d2nni-111" value="110" style="text;html=1;strokeColor=none;fillColor=none;align=center;verticalAlign=middle;whiteSpace=wrap;rounded=0;" vertex="1" parent="1">
          <mxGeometry x="790" y="255" width="60" height="30" as="geometry" />
        </mxCell>
        <mxCell id="mcP9L7tTUNHFwV_d2nni-112" value="95" style="text;html=1;strokeColor=none;fillColor=none;align=center;verticalAlign=middle;whiteSpace=wrap;rounded=0;" vertex="1" parent="1">
          <mxGeometry x="767" y="255" width="60" height="30" as="geometry" />
        </mxCell>
        <mxCell id="mcP9L7tTUNHFwV_d2nni-113" value="95" style="text;html=1;strokeColor=none;fillColor=none;align=center;verticalAlign=middle;whiteSpace=wrap;rounded=0;" vertex="1" parent="1">
          <mxGeometry x="620" y="255" width="60" height="30" as="geometry" />
        </mxCell>
        <mxCell id="mcP9L7tTUNHFwV_d2nni-114" value="75" style="text;html=1;strokeColor=none;fillColor=none;align=center;verticalAlign=middle;whiteSpace=wrap;rounded=0;" vertex="1" parent="1">
          <mxGeometry x="600" y="255" width="60" height="30" as="geometry" />
        </mxCell>
        <mxCell id="mcP9L7tTUNHFwV_d2nni-115" value="75" style="text;html=1;strokeColor=none;fillColor=none;align=center;verticalAlign=middle;whiteSpace=wrap;rounded=0;" vertex="1" parent="1">
          <mxGeometry x="460" y="255" width="60" height="30" as="geometry" />
        </mxCell>
        <mxCell id="mcP9L7tTUNHFwV_d2nni-116" value="75" style="text;html=1;strokeColor=none;fillColor=none;align=center;verticalAlign=middle;whiteSpace=wrap;rounded=0;" vertex="1" parent="1">
          <mxGeometry x="460" y="70" width="60" height="40" as="geometry" />
        </mxCell>
        <mxCell id="mcP9L7tTUNHFwV_d2nni-117" value="72" style="text;html=1;strokeColor=none;fillColor=none;align=center;verticalAlign=middle;whiteSpace=wrap;rounded=0;" vertex="1" parent="1">
          <mxGeometry x="439" y="75" width="60" height="30" as="geometry" />
        </mxCell>
        <mxCell id="mcP9L7tTUNHFwV_d2nni-118" value="30" style="text;html=1;strokeColor=none;fillColor=none;align=center;verticalAlign=middle;whiteSpace=wrap;rounded=0;" vertex="1" parent="1">
          <mxGeometry x="439" y="255" width="60" height="30" as="geometry" />
        </mxCell>
        <mxCell id="mcP9L7tTUNHFwV_d2nni-119" value="30" style="text;html=1;strokeColor=none;fillColor=none;align=center;verticalAlign=middle;whiteSpace=wrap;rounded=0;" vertex="1" parent="1">
          <mxGeometry x="330" y="150" width="60" height="40" as="geometry" />
        </mxCell>
        <mxCell id="mcP9L7tTUNHFwV_d2nni-120" value="0" style="text;html=1;strokeColor=none;fillColor=none;align=center;verticalAlign=middle;whiteSpace=wrap;rounded=0;" vertex="1" parent="1">
          <mxGeometry x="310" y="155" width="60" height="30" as="geometry" />
        </mxCell>
        <mxCell id="mcP9L7tTUNHFwV_d2nni-121" value="D = 0" style="text;html=1;strokeColor=none;fillColor=none;align=center;verticalAlign=middle;whiteSpace=wrap;rounded=0;" vertex="1" parent="1">
          <mxGeometry x="324" y="90" width="60" height="30" as="geometry" />
        </mxCell>
        <mxCell id="mcP9L7tTUNHFwV_d2nni-122" value="D = 42" style="text;html=1;strokeColor=none;fillColor=none;align=center;verticalAlign=middle;whiteSpace=wrap;rounded=0;" vertex="1" parent="1">
          <mxGeometry x="450" y="30" width="60" height="30" as="geometry" />
        </mxCell>
        <mxCell id="mcP9L7tTUNHFwV_d2nni-123" value="D = 0" style="text;html=1;strokeColor=none;fillColor=none;align=center;verticalAlign=middle;whiteSpace=wrap;rounded=0;" vertex="1" parent="1">
          <mxGeometry x="444" y="410" width="60" height="30" as="geometry" />
        </mxCell>
        <mxCell id="mcP9L7tTUNHFwV_d2nni-124" value="D = 0" style="text;html=1;strokeColor=none;fillColor=none;align=center;verticalAlign=middle;whiteSpace=wrap;rounded=0;" vertex="1" parent="1">
          <mxGeometry x="610" y="210" width="60" height="30" as="geometry" />
        </mxCell>
        <mxCell id="mcP9L7tTUNHFwV_d2nni-125" value="D = 0" style="text;html=1;strokeColor=none;fillColor=none;align=center;verticalAlign=middle;whiteSpace=wrap;rounded=0;" vertex="1" parent="1">
          <mxGeometry x="780" y="210" width="60" height="30" as="geometry" />
        </mxCell>
        <mxCell id="mcP9L7tTUNHFwV_d2nni-126" value="D = 0" style="text;html=1;strokeColor=none;fillColor=none;align=center;verticalAlign=middle;whiteSpace=wrap;rounded=0;" vertex="1" parent="1">
          <mxGeometry x="950" y="210" width="60" height="30" as="geometry" />
        </mxCell>
        <mxCell id="mcP9L7tTUNHFwV_d2nni-127" value="D = 0" style="text;html=1;strokeColor=none;fillColor=none;align=center;verticalAlign=middle;whiteSpace=wrap;rounded=0;" vertex="1" parent="1">
          <mxGeometry x="1120" y="210" width="60" height="30" as="geometry" />
        </mxCell>
        <mxCell id="mcP9L7tTUNHFwV_d2nni-128" value="D = 0" style="text;html=1;strokeColor=none;fillColor=none;align=center;verticalAlign=middle;whiteSpace=wrap;rounded=0;" vertex="1" parent="1">
          <mxGeometry x="1290" y="210" width="60" height="30" as="geometry" />
        </mxCell>
        <mxCell id="mcP9L7tTUNHFwV_d2nni-129" value="D = 0" style="text;html=1;strokeColor=none;fillColor=none;align=center;verticalAlign=middle;whiteSpace=wrap;rounded=0;" vertex="1" parent="1">
          <mxGeometry x="1460" y="210" width="60" height="30" as="geometry" />
        </mxCell>
        <mxCell id="mcP9L7tTUNHFwV_d2nni-130" value="D = 0" style="text;html=1;strokeColor=none;fillColor=none;align=center;verticalAlign=middle;whiteSpace=wrap;rounded=0;" vertex="1" parent="1">
          <mxGeometry x="1580" y="110" width="60" height="30" as="geometry" />
        </mxCell>
        <mxCell id="mcP9L7tTUNHFwV_d2nni-131" value="D = 8,5" style="text;html=1;strokeColor=none;fillColor=none;align=center;verticalAlign=middle;whiteSpace=wrap;rounded=0;" vertex="1" parent="1">
          <mxGeometry x="1580" y="500" width="60" height="30" as="geometry" />
        </mxCell>
        <mxCell id="mcP9L7tTUNHFwV_d2nni-132" value="D = 0" style="text;html=1;strokeColor=none;fillColor=none;align=center;verticalAlign=middle;whiteSpace=wrap;rounded=0;" vertex="1" parent="1">
          <mxGeometry x="1750" y="210" width="60" height="30" as="geometry" />
        </mxCell>
        <mxCell id="mcP9L7tTUNHFwV_d2nni-133" value="D = 0" style="text;html=1;strokeColor=none;fillColor=none;align=center;verticalAlign=middle;whiteSpace=wrap;rounded=0;" vertex="1" parent="1">
          <mxGeometry x="1910" y="210" width="60" height="30" as="geometry" />
        </mxCell>
      </root>
    </mxGraphModel>
  </diagram>
</mxfile>
